ISO-10303-21;
HEADER;
FILE_DESCRIPTION (( 'STEP AP203' ),
    '1' );
FILE_NAME ('NACA0021.STEP',
    '2025-08-20T10:41:42',
    ( '' ),
    ( '' ),
    'SwSTEP 2.0',
    'SolidWorks 2022',
    '' );
FILE_SCHEMA (( 'CONFIG_CONTROL_DESIGN' ));
ENDSEC;

DATA;
#1 = CARTESIAN_POINT ( 'NONE',  ( -3.682052065471286717, 10.00000000000000000, 1.390649016164565488 ) ) ;
#2 = CC_DESIGN_APPROVAL ( #91, ( #95 ) ) ;
#3 = CARTESIAN_POINT ( 'NONE',  ( -3.162209325671078375, 10.00000000000000000, -2.198584483265773493 ) ) ;
#4 = CARTESIAN_POINT ( 'NONE',  ( -3.162152188715176226, 10.00000000000000000, 2.198570393113314037 ) ) ;
#5 = ORIENTED_EDGE ( 'NONE', *, *, #308, .F. ) ;
#6 = LINE ( 'NONE', #283, #120 ) ;
#7 = ORIENTED_EDGE ( 'NONE', *, *, #51, .F. ) ;
#8 =( GEOMETRIC_REPRESENTATION_CONTEXT ( 3 ) GLOBAL_UNCERTAINTY_ASSIGNED_CONTEXT ( ( #248 ) ) GLOBAL_UNIT_ASSIGNED_CONTEXT ( ( #52, #371, #255 ) ) REPRESENTATION_CONTEXT ( 'NONE', 'WORKASPACE' ) );
#9 = CARTESIAN_POINT ( 'NONE',  ( 9.899074599295342836, 10.00000000000000000, 6.645028693537200937 ) ) ;
#10 = CARTESIAN_POINT ( 'NONE',  ( -0.2241393383688433105, 10.00000000000000000, 4.327061552293501201 ) ) ;
#11 = DIRECTION ( 'NONE',  ( -0.000000000000000000, -1.000000000000000000, -0.000000000000000000 ) ) ;
#12 = CARTESIAN_POINT ( 'NONE',  ( 6.177629102271805728, 10.00000000000000000, 6.190477115333933078 ) ) ;
#13 = CARTESIAN_POINT ( 'NONE',  ( -4.000010672185773331, 0.000000000000000000, 7.738493006115287898E-15 ) ) ;
#14 = AXIS2_PLACEMENT_3D ( 'NONE', #284, #305, #220 ) ;
#15 = CARTESIAN_POINT ( 'NONE',  ( 19.24952798273630705, 10.00000000000000000, 6.741222125033523582 ) ) ;
#16 = DIRECTION ( 'NONE',  ( 0.000000000000000000, 1.000000000000000000, 0.000000000000000000 ) ) ;
#17 = CARTESIAN_POINT ( 'NONE',  ( 40.87915649690862097, 0.000000000000000000, -4.180566580021356948 ) ) ;
#18 = CARTESIAN_POINT ( 'NONE',  ( 31.02221433352090330, 0.000000000000000000, -5.658679045734908541 ) ) ;
#19 = CARTESIAN_POINT ( 'NONE',  ( 37.18907753985403986, 10.00000000000000000, -4.782391267887218689 ) ) ;
#20 = CARTESIAN_POINT ( 'NONE',  ( -3.988729508874414798, 5.204170427930421283E-15, 0.3275227370735800947 ) ) ;
#21 = CARTESIAN_POINT ( 'NONE',  ( 6.180110344006204848, 10.00000000000000000, -6.189865238062071562 ) ) ;
#22 = CARTESIAN_POINT ( 'NONE',  ( 44.55779452171282173, 1.214306433183764966E-14, -3.534632415633133018 ) ) ;
#23 = PERSON_AND_ORGANIZATION_ROLE ( 'creator' ) ;
#24 = CARTESIAN_POINT ( 'NONE',  ( 43.82044898758530849, 0.000000000000000000, 3.682140076002339946 ) ) ;
#25 = DATE_AND_TIME ( #396, #174 ) ;
#26 = CARTESIAN_POINT ( 'NONE',  ( -3.835523099869097674, 1.214306433183764966E-14, -1.019065702555253194 ) ) ;
#27 = CARTESIAN_POINT ( 'NONE',  ( 53.37402787179086516, 10.00000000000000000, 1.791853386780913659 ) ) ;
#28 = CARTESIAN_POINT ( 'NONE',  ( -3.988729508874414798, 10.00000000000000000, 0.3275227370735800947 ) ) ;
#29 = ORIENTED_EDGE ( 'NONE', *, *, #44, .F. ) ;
#30 = DIRECTION ( 'NONE',  ( 0.000000000000000000, -0.000000000000000000, 1.000000000000000000 ) ) ;
#31 = CARTESIAN_POINT ( 'NONE',  ( 59.13091934526939752, 1.214306433183764966E-14, -0.4565785448581906047 ) ) ;
#32 = CARTESIAN_POINT ( 'NONE',  ( -3.999788338717962244, 10.00000000000000000, 0.1193653411257931396 ) ) ;
#33 = CARTESIAN_POINT ( 'NONE',  ( -3.835523099869097674, 10.00000000000000000, -1.019065702555253194 ) ) ;
#34 = CARTESIAN_POINT ( 'NONE',  ( -3.682052065471286717, 10.00000000000000000, 1.390649016164565488 ) ) ;
#35 = APPROVAL_PERSON_ORGANIZATION ( #369, #217, #394 ) ;
#36 = DATE_AND_TIME ( #318, #260 ) ;
#37 = CARTESIAN_POINT ( 'NONE',  ( 34.06381173600235002, 5.204170427930421283E-15, 5.266305484782960455 ) ) ;
#38 = CARTESIAN_POINT ( 'NONE',  ( 19.23811955928892203, 0.000000000000000000, -6.744035006655380471 ) ) ;
#39 = CALENDAR_DATE ( 2025, 20, 8 ) ;
#40 = CARTESIAN_POINT ( 'NONE',  ( 24.19352111181953546, 10.00000000000000000, 6.415334510845734250 ) ) ;
#41 = CARTESIAN_POINT ( 'NONE',  ( 48.23411394958422704, 0.000000000000000000, -2.834715522973801249 ) ) ;
#42 = CARTESIAN_POINT ( 'NONE',  ( -3.988729508874414798, 10.00000000000000000, 0.3275227370735800947 ) ) ;
#43 = CARTESIAN_POINT ( 'NONE',  ( -1.347281577222143811, 0.000000000000000000, -3.721738879643265996 ) ) ;
#44 = EDGE_CURVE ( 'NONE', #195, #257, #300, .T. ) ;
#45 = CARTESIAN_POINT ( 'NONE',  ( 6.177629102271805728, 0.000000000000000000, 6.190477115333933078 ) ) ;
#46 = CARTESIAN_POINT ( 'NONE',  ( 61.00016275083289230, 10.00000000000000000, -1.215661685899371847E-14 ) ) ;
#47 = CARTESIAN_POINT ( 'NONE',  ( 19.23811955928892203, 10.00000000000000000, -6.744035006655380471 ) ) ;
#48 = CARTESIAN_POINT ( 'NONE',  ( 29.19814884101255714, 10.00000000000000000, 5.893853694882555061 ) ) ;
#49 = LOCAL_TIME ( 11, 41, 42.00000000000000000, #119 ) ;
#50 = CARTESIAN_POINT ( 'NONE',  ( 59.89937541630874307, 0.000000000000000000, 0.2725248747202133615 ) ) ;
#51 = EDGE_CURVE ( 'NONE', #257, #222, #193, .T. ) ;
#52 =( LENGTH_UNIT ( ) NAMED_UNIT ( * ) SI_UNIT ( .MILLI., .METRE. ) );
#53 = CARTESIAN_POINT ( 'NONE',  ( 9.894260074195905474, 10.00000000000000000, -6.646215945110930612 ) ) ;
#54 = PERSON_AND_ORGANIZATION_ROLE ( 'design_owner' ) ;
#55 = CARTESIAN_POINT ( 'NONE',  ( 1.340579977082028806, 10.00000000000000000, -4.974744636415066701 ) ) ;
#56 = APPROVAL_DATE_TIME ( #245, #217 ) ;
#57 = CARTESIAN_POINT ( 'NONE',  ( -4.000010672185773331, 10.00000000000000000, 7.738493006115287898E-15 ) ) ;
#58 = CARTESIAN_POINT ( 'NONE',  ( -1.347281577222143811, 10.00000000000000000, -3.721738879643265996 ) ) ;
#59 = ORIENTED_EDGE ( 'NONE', *, *, #176, .F. ) ;
#60 = APPLICATION_PROTOCOL_DEFINITION ( 'international standard', 'config_control_design', 1994, #342 ) ;
#61 = MANIFOLD_SOLID_BREP ( 'Boss-Extrude1', #142 ) ;
#62 = CARTESIAN_POINT ( 'NONE',  ( -4.000010672185773331, 0.000000000000000000, 7.738493006115287898E-15 ) ) ;
#63 = CARTESIAN_POINT ( 'NONE',  ( 23.58965943377242880, 10.00000000000000000, -6.452585949676296728 ) ) ;
#64 = PRODUCT_DEFINITION_FORMATION_WITH_SPECIFIED_SOURCE ( 'ANY', '', #80, .NOT_KNOWN. ) ;
#65 = ADVANCED_FACE ( 'NONE', ( #298 ), #238, .F. ) ;
#66 = CARTESIAN_POINT ( 'NONE',  ( 57.99521203536876612, 10.00000000000000000, -0.7245283714796745267 ) ) ;
#67 = APPROVAL_STATUS ( 'not_yet_approved' ) ;
#68 = CARTESIAN_POINT ( 'NONE',  ( 37.18907753985403986, 10.00000000000000000, -4.782391267887218689 ) ) ;
#69 = CC_DESIGN_DATE_AND_TIME_ASSIGNMENT ( #89, #215, ( #147 ) ) ;
#70 = CARTESIAN_POINT ( 'NONE',  ( 34.06381173600235002, 10.00000000000000000, 5.266305484782960455 ) ) ;
#71 = CARTESIAN_POINT ( 'NONE',  ( -2.744187549745496835, 0.000000000000000000, 2.655103186654688585 ) ) ;
#72 = DATE_TIME_ROLE ( 'classification_date' ) ;
#73 = CARTESIAN_POINT ( 'NONE',  ( 1.339712526443797236, 5.204170427930421283E-15, 4.974958552286973479 ) ) ;
#74 = CARTESIAN_POINT ( 'NONE',  ( 19.24952798273630705, 0.000000000000000000, 6.741222125033523582 ) ) ;
#75 = PERSON ( 'UNSPECIFIED', 'UNSPECIFIED', 'UNSPECIFIED', ('UNSPECIFIED'), ('UNSPECIFIED'), ('UNSPECIFIED') ) ;
#76 = CARTESIAN_POINT ( 'NONE',  ( -3.999788338717962244, 5.204170427930421283E-15, 0.1193653411257931396 ) ) ;
#77 = CARTESIAN_POINT ( 'NONE',  ( 9.894260074195905474, 0.000000000000000000, -6.646215945110930612 ) ) ;
#78 = CARTESIAN_POINT ( 'NONE',  ( -2.161842946719301217, 0.000000000000000000, 3.160699964592823097 ) ) ;
#79 = CC_DESIGN_SECURITY_CLASSIFICATION ( #95, ( #64 ) ) ;
#80 = PRODUCT ( 'NACA0021', 'NACA0021', '', ( #127 ) ) ;
#81 = LOCAL_TIME ( 11, 41, 42.00000000000000000, #310 ) ;
#82 = CARTESIAN_POINT ( 'NONE',  ( -3.835531792780665583, 0.000000000000000000, 1.019067846254525955 ) ) ;
#83 = CARTESIAN_POINT ( 'NONE',  ( 14.25361912908789819, 10.00000000000000000, -6.842447674594404283 ) ) ;
#84 = CARTESIAN_POINT ( 'NONE',  ( 14.24568511429388096, 10.00000000000000000, 6.844404105661390680 ) ) ;
#85 = CC_DESIGN_DATE_AND_TIME_ASSIGNMENT ( #225, #72, ( #95 ) ) ;
#86 = CARTESIAN_POINT ( 'NONE',  ( -3.945374334032847319, 1.214306433183764966E-14, -0.6283989523682160794 ) ) ;
#87 = CARTESIAN_POINT ( 'NONE',  ( 43.82044898758530849, 10.00000000000000000, 3.682140076002339946 ) ) ;
#88 = CARTESIAN_POINT ( 'NONE',  ( 31.02221433352090330, 1.214306433183764966E-14, -5.658679045734908541 ) ) ;
#89 = DATE_AND_TIME ( #253, #81 ) ;
#90 = CARTESIAN_POINT ( 'NONE',  ( 9.894260074195905474, 1.214306433183764966E-14, -6.646215945110930612 ) ) ;
#91 = APPROVAL ( #67, 'UNSPECIFIED' ) ;
#92 = PERSON_AND_ORGANIZATION ( #75, #378 ) ;
#93 = CARTESIAN_POINT ( 'NONE',  ( -2.744087495540648458, 10.00000000000000000, -2.655078512974201832 ) ) ;
#94 = PERSON_AND_ORGANIZATION ( #75, #378 ) ;
#95 = SECURITY_CLASSIFICATION ( '', '', #196 ) ;
#96 = CARTESIAN_POINT ( 'NONE',  ( 54.63824715506068230, 1.214306433183764966E-14, -1.489861082063997033 ) ) ;
#97 = EDGE_LOOP ( 'NONE', ( #317, #59 ) ) ;
#98 = CARTESIAN_POINT ( 'NONE',  ( 9.894260074195905474, 10.00000000000000000, -6.646215945110930612 ) ) ;
#99 = CARTESIAN_POINT ( 'NONE',  ( 57.71114146749255269, 10.00000000000000000, 0.7960711140027980637 ) ) ;
#100 = CARTESIAN_POINT ( 'NONE',  ( -3.464402205329171203, 10.00000000000000000, -1.780407478989779246 ) ) ;
#101 = CARTESIAN_POINT ( 'NONE',  ( 59.13091934526939752, 10.00000000000000000, -0.4565785448581906047 ) ) ;
#102 = CARTESIAN_POINT ( 'NONE',  ( 34.10963128208886985, 10.00000000000000000, -5.243140638262017816 ) ) ;
#103 = ORIENTED_EDGE ( 'NONE', *, *, #44, .T. ) ;
#104 = CARTESIAN_POINT ( 'NONE',  ( 24.19352111181953546, 5.204170427930421283E-15, 6.415334510845734250 ) ) ;
#105 = CARTESIAN_POINT ( 'NONE',  ( -3.999787812099033335, 0.000000000000000000, -0.1193652112599321441 ) ) ;
#106 = CARTESIAN_POINT ( 'NONE',  ( -3.999788338717962244, 10.00000000000000000, 0.1193653411257931396 ) ) ;
#107 = CARTESIAN_POINT ( 'NONE',  ( 24.19352111181953546, 0.000000000000000000, 6.415334510845734250 ) ) ;
#108 = CARTESIAN_POINT ( 'NONE',  ( 1.339712526443797236, 10.00000000000000000, 4.974958552286973479 ) ) ;
#109 = CARTESIAN_POINT ( 'NONE',  ( 27.31020716821056737, 0.000000000000000000, -6.092166456634518390 ) ) ;
#110 = CARTESIAN_POINT ( 'NONE',  ( 43.82044898758530849, 10.00000000000000000, 3.682140076002339946 ) ) ;
#111 = CARTESIAN_POINT ( 'NONE',  ( 23.58965943377242880, 0.000000000000000000, -6.452585949676296728 ) ) ;
#112 = CARTESIAN_POINT ( 'NONE',  ( 54.63824715506068230, 0.000000000000000000, -1.489861082063997033 ) ) ;
#113 = VECTOR ( 'NONE', #11, 1000.000000000000000 ) ;
#114 = CARTESIAN_POINT ( 'NONE',  ( -4.000010672185750238, 10.00000000000000000, 1.233279971202261294E-15 ) ) ;
#115 = B_SPLINE_CURVE_WITH_KNOTS ( 'NONE', 4,
 ( #13, #144, #272, #388, #82, #236, #360, #177, #71, #78, #205, #199, #169, #331, #45, #292, #383, #74, #107, #150, #216, #148, #24, #208, #241, #393, #50, #390 ),
 .UNSPECIFIED., .F., .F.,
 ( 5, 1, 1, 1, 1, 1, 1, 1, 1, 1, 1, 1, 1, 1, 1, 1, 1, 1, 1, 1, 1, 1, 1, 1, 5 ),
 ( 0.000000000000000000, 0.006365676979501946366, 0.01113674229363168129, 0.01618158743069886621, 0.02163052614568948193, 0.02779228495722497680, 0.03493032354436802905, 0.04368172939090492896, 0.05462787503376247134, 0.06889443522516194851, 0.08766661409192094689, 0.1116926443323266044, 0.1449675206849062870, 0.1782424591516846846, 0.2447716038946990136, 0.3113216121476155007, 0.3778716255086558840, 0.4444216389820980218, 0.5109716543785641774, 0.5775216694758934510, 0.6440716861926020220, 0.7106217005002044562, 0.7771717136623956801, 0.8437217317246057391, 0.9102717492191230164 ),
 .UNSPECIFIED. ) ;
#116 = FACE_OUTER_BOUND ( 'NONE', #132, .T. ) ;
#117 = CARTESIAN_POINT ( 'NONE',  ( 6.177629102271805728, 10.00000000000000000, 6.190477115333933078 ) ) ;
#118 = CARTESIAN_POINT ( 'NONE',  ( -3.988727823981761400, 1.214306433183764966E-14, -0.3275223215737777527 ) ) ;
#119 = COORDINATED_UNIVERSAL_TIME_OFFSET ( 0, 0, .AHEAD. ) ;
#120 = VECTOR ( 'NONE', #224, 1000.000000000000000 ) ;
#121 = DESIGN_CONTEXT ( 'detailed design', #342, 'design' ) ;
#122 = CARTESIAN_POINT ( 'NONE',  ( 37.18907753985403986, 1.214306433183764966E-14, -4.782391267887218689 ) ) ;
#123 = CARTESIAN_POINT ( 'NONE',  ( 49.05300769595208266, 10.00000000000000000, 2.667019805078091110 ) ) ;
#124 = CARTESIAN_POINT ( 'NONE',  ( 23.58965943377242880, 10.00000000000000000, -6.452585949676296728 ) ) ;
#125 = APPROVAL_DATE_TIME ( #25, #243 ) ;
#126 = CARTESIAN_POINT ( 'NONE',  ( 51.88872525218816634, 10.00000000000000000, -2.086599733168108539 ) ) ;
#127 = MECHANICAL_CONTEXT ( 'NONE', #227, 'mechanical' ) ;
#128 = APPROVAL_PERSON_ORGANIZATION ( #161, #91, #223 ) ;
#129 = CARTESIAN_POINT ( 'NONE',  ( -3.464433887349023244, 10.00000000000000000, 1.780415291875207195 ) ) ;
#130 = CARTESIAN_POINT ( 'NONE',  ( 27.48702598235577810, 10.00000000000000000, -6.059876568597196922 ) ) ;
#131 = CARTESIAN_POINT ( 'NONE',  ( 6.180110344006204848, 10.00000000000000000, -6.189865238062071562 ) ) ;
#132 = EDGE_LOOP ( 'NONE', ( #7, #29, #163, #219 ) ) ;
#133 = CARTESIAN_POINT ( 'NONE',  ( -2.744187549745496835, 10.00000000000000000, 2.655103186654688585 ) ) ;
#134 = ORIENTED_EDGE ( 'NONE', *, *, #176, .T. ) ;
#135 = CARTESIAN_POINT ( 'NONE',  ( -3.945374334032847319, 10.00000000000000000, -0.6283989523682160794 ) ) ;
#136 = EDGE_LOOP ( 'NONE', ( #5, #158 ) ) ;
#137 = CARTESIAN_POINT ( 'NONE',  ( 19.24952798273630705, 5.204170427930421283E-15, 6.741222125033523582 ) ) ;
#138 = CARTESIAN_POINT ( 'NONE',  ( 34.06381173600235002, 10.00000000000000000, 5.266305484782960455 ) ) ;
#139 = CARTESIAN_POINT ( 'NONE',  ( -3.988727823981761400, 0.000000000000000000, -0.3275223215737777527 ) ) ;
#140 = CARTESIAN_POINT ( 'NONE',  ( -2.161842946719301217, 10.00000000000000000, 3.160699964592823097 ) ) ;
#141 = VERTEX_POINT ( 'NONE', #46 ) ;
#142 = CLOSED_SHELL ( 'NONE', ( #201, #376, #399, #65 ) ) ;
#143 = CARTESIAN_POINT ( 'NONE',  ( -3.682052065471286717, 5.204170427930421283E-15, 1.390649016164565488 ) ) ;
#144 = CARTESIAN_POINT ( 'NONE',  ( -3.999788338717962244, 0.000000000000000000, 0.1193653411257931396 ) ) ;
#145 = CARTESIAN_POINT ( 'NONE',  ( 1.340579977082028806, 0.000000000000000000, -4.974744636415066701 ) ) ;
#146 = CARTESIAN_POINT ( 'NONE',  ( 37.18907753985403986, 0.000000000000000000, -4.782391267887218689 ) ) ;
#147 = PRODUCT_DEFINITION ( 'UNKNOWN', '', #64, #121 ) ;
#148 = CARTESIAN_POINT ( 'NONE',  ( 39.11409195064368305, 0.000000000000000000, 4.479693819655993892 ) ) ;
#149 = CARTESIAN_POINT ( 'NONE',  ( -1.347579810629496944, 10.00000000000000000, 3.721812424930831309 ) ) ;
#150 = CARTESIAN_POINT ( 'NONE',  ( 29.19814884101255714, 0.000000000000000000, 5.893853694882555061 ) ) ;
#151 = CARTESIAN_POINT ( 'NONE',  ( -0.2246440192882406817, 1.214306433183764966E-14, -4.327186008158712127 ) ) ;
#152 = APPROVAL_STATUS ( 'not_yet_approved' ) ;
#153 = CARTESIAN_POINT ( 'NONE',  ( -3.999787812099033335, 1.214306433183764966E-14, -0.1193652112599321441 ) ) ;
#154 = DIRECTION ( 'NONE',  ( 0.000000000000000000, 1.000000000000000000, 0.000000000000000000 ) ) ;
#155 = CARTESIAN_POINT ( 'NONE',  ( 60.16729031064857480, 1.214306433183764966E-14, -0.2050589500908741869 ) ) ;
#156 = CARTESIAN_POINT ( 'NONE',  ( 53.37402787179086516, 5.204170427930421283E-15, 1.791853386780913659 ) ) ;
#157 = CARTESIAN_POINT ( 'NONE',  ( -3.945369041223754092, 10.00000000000000000, 0.6283976471448990964 ) ) ;
#158 = ORIENTED_EDGE ( 'NONE', *, *, #316, .T. ) ;
#159 = CARTESIAN_POINT ( 'NONE',  ( 49.05300769595208266, 5.204170427930421283E-15, 2.667019805078091110 ) ) ;
#160 = CARTESIAN_POINT ( 'NONE',  ( 60.16729031064857480, 10.00000000000000000, -0.2050589500908741869 ) ) ;
#161 = PERSON_AND_ORGANIZATION ( #75, #378 ) ;
#162 = CARTESIAN_POINT ( 'NONE',  ( -3.988727823981761400, 10.00000000000000000, -0.3275223215737777527 ) ) ;
#163 = ORIENTED_EDGE ( 'NONE', *, *, #308, .T. ) ;
#164 = CC_DESIGN_PERSON_AND_ORGANIZATION_ASSIGNMENT ( #278, #54, ( #80 ) ) ;
#165 = CARTESIAN_POINT ( 'NONE',  ( -2.162016428990652717, 10.00000000000000000, -3.160742745863916348 ) ) ;
#166 = B_SPLINE_CURVE_WITH_KNOTS ( 'NONE', 4,
 ( #346, #322, #162, #135, #33, #350, #100, #3, #315, #165, #58, #398, #258, #373, #131, #98, #256, #289, #63, #190, #379, #102, #68, #218, #191, #197, #126, #251, #285, #372, #343, #186, #313, #374 ),
 .UNSPECIFIED., .F., .F.,
 ( 5, 1, 1, 1, 1, 1, 1, 1, 1, 1, 1, 1, 1, 1, 1, 1, 1, 1, 1, 1, 1, 1, 1, 1, 1, 1, 1, 1, 1, 1, 5 ),
 ( 0.000000000000000000, 0.006365676979501942029, 0.01113674229363167435, 0.01618158743069886274, 0.02163052614568946805, 0.02779228495722498374, 0.03493032354436801518, 0.04368172939090492896, 0.05462787503376248521, 0.06889443522516201790, 0.08766661409192096077, 0.1116926443323265905, 0.1449675206849061759, 0.1782424591516847401, 0.2447716038946991801, 0.3113216121476157228, 0.3778716255086562725, 0.4444216389820986324, 0.4776966466803316269, 0.5109716543785646214, 0.5775216694758932290, 0.6107966778342475145, 0.6440716861926018000, 0.7106217005002041232, 0.7771717136623950140, 0.8104467226935003765, 0.8437217317246056281, 0.8603592360982350584, 0.8769967404718645998, 0.8936342448454940302, 0.9102717492191234605 ),
 .UNSPECIFIED. ) ;
#167 = CARTESIAN_POINT ( 'NONE',  ( -0.2241393383688433105, 5.204170427930421283E-15, 4.327061552293501201 ) ) ;
#168 = FACE_OUTER_BOUND ( 'NONE', #344, .T. ) ;
#169 = CARTESIAN_POINT ( 'NONE',  ( 1.339712526443797236, 0.000000000000000000, 4.974958552286973479 ) ) ;
#170 = CARTESIAN_POINT ( 'NONE',  ( 49.05300769595208266, 10.00000000000000000, 2.667019805078091110 ) ) ;
#171 = CARTESIAN_POINT ( 'NONE',  ( 60.16729031064857480, 0.000000000000000000, -0.2050589500908741869 ) ) ;
#172 = CC_DESIGN_PERSON_AND_ORGANIZATION_ASSIGNMENT ( #367, #23, ( #147 ) ) ;
#173 = CARTESIAN_POINT ( 'NONE',  ( 14.24568511429388096, 10.00000000000000000, 6.844404105661390680 ) ) ;
#174 = LOCAL_TIME ( 11, 41, 42.00000000000000000, #280 ) ;
#175 = CARTESIAN_POINT ( 'NONE',  ( 3.302099453747358471, 0.000000000000000000, -5.570266403274718670 ) ) ;
#176 = EDGE_CURVE ( 'NONE', #257, #222, #115, .T. ) ;
#177 = CARTESIAN_POINT ( 'NONE',  ( -3.162152188715176226, 0.000000000000000000, 2.198570393113314037 ) ) ;
#178 = CARTESIAN_POINT ( 'NONE',  ( 27.31020716821056737, 10.00000000000000000, -6.092166456634518390 ) ) ;
#179 = CARTESIAN_POINT ( 'NONE',  ( 29.19814884101255714, 10.00000000000000000, 5.893853694882555061 ) ) ;
#180 = CARTESIAN_POINT ( 'NONE',  ( -3.682069090142465306, 10.00000000000000000, -1.390653214501839985 ) ) ;
#181 = CARTESIAN_POINT ( 'NONE',  ( 19.23811955928892203, 1.214306433183764966E-14, -6.744035006655380471 ) ) ;
#182 = CARTESIAN_POINT ( 'NONE',  ( 40.87915649690862097, 1.214306433183764966E-14, -4.180566580021356948 ) ) ;
#183 = APPLICATION_PROTOCOL_DEFINITION ( 'international standard', 'config_control_design', 1994, #227 ) ;
#184 = CARTESIAN_POINT ( 'NONE',  ( 6.180110344006204848, 1.214306433183764966E-14, -6.189865238062071562 ) ) ;
#185 = PLANE ( 'NONE',  #301 ) ;
#186 = CARTESIAN_POINT ( 'NONE',  ( 60.16729031064857480, 10.00000000000000000, -0.2050589500908741869 ) ) ;
#187 = ADVANCED_BREP_SHAPE_REPRESENTATION ( 'NACA0021', ( #61, #14 ), #8 ) ;
#188 = ORIENTED_EDGE ( 'NONE', *, *, #237, .F. ) ;
#189 = CARTESIAN_POINT ( 'NONE',  ( 59.89937541630874307, 10.00000000000000000, 0.2725248747202133615 ) ) ;
#190 = CARTESIAN_POINT ( 'NONE',  ( 27.31020716821056737, 10.00000000000000000, -6.092166456634518390 ) ) ;
#191 = CARTESIAN_POINT ( 'NONE',  ( 44.55779452171282173, 10.00000000000000000, -3.534632415633133018 ) ) ;
#192 = PERSON_AND_ORGANIZATION ( #75, #378 ) ;
#193 = B_SPLINE_CURVE_WITH_KNOTS ( 'NONE', 4,
 ( #270, #105, #139, #207, #386, #202, #235, #328, #359, #273, #43, #295, #145, #175, #204, #77, #332, #38, #111, #109, #18, #299, #146, #17, #389, #41, #268, #112, #325, #356, #330, #171, #230, #233 ),
 .UNSPECIFIED., .F., .F.,
 ( 5, 1, 1, 1, 1, 1, 1, 1, 1, 1, 1, 1, 1, 1, 1, 1, 1, 1, 1, 1, 1, 1, 1, 1, 1, 1, 1, 1, 1, 1, 5 ),
 ( 0.000000000000000000, 0.006365676979501942029, 0.01113674229363167435, 0.01618158743069886274, 0.02163052614568946805, 0.02779228495722498374, 0.03493032354436801518, 0.04368172939090492896, 0.05462787503376248521, 0.06889443522516201790, 0.08766661409192096077, 0.1116926443323265905, 0.1449675206849061759, 0.1782424591516847401, 0.2447716038946991801, 0.3113216121476157228, 0.3778716255086562725, 0.4444216389820986324, 0.4776966466803316269, 0.5109716543785646214, 0.5775216694758932290, 0.6107966778342475145, 0.6440716861926018000, 0.7106217005002041232, 0.7771717136623950140, 0.8104467226935003765, 0.8437217317246056281, 0.8603592360982350584, 0.8769967404718645998, 0.8936342448454940302, 0.9102717492191234605 ),
 .UNSPECIFIED. ) ;
#194 = CARTESIAN_POINT ( 'NONE',  ( 61.00016275083289230, 0.000000000000000000, -1.215661685899371847E-14 ) ) ;
#195 = VERTEX_POINT ( 'NONE', #57 ) ;
#196 = SECURITY_CLASSIFICATION_LEVEL ( 'unclassified' ) ;
#197 = CARTESIAN_POINT ( 'NONE',  ( 48.23411394958422704, 10.00000000000000000, -2.834715522973801249 ) ) ;
#198 = CARTESIAN_POINT ( 'NONE',  ( 3.303491622409441941, 10.00000000000000000, 5.569923090982206837 ) ) ;
#199 = CARTESIAN_POINT ( 'NONE',  ( -0.2241393383688433105, 0.000000000000000000, 4.327061552293501201 ) ) ;
#200 = CARTESIAN_POINT ( 'NONE',  ( -3.835531792780665583, 10.00000000000000000, 1.019067846254525955 ) ) ;
#201 = ADVANCED_FACE ( 'NONE', ( #116 ), #377, .T. ) ;
#202 = CARTESIAN_POINT ( 'NONE',  ( -3.682069090142465306, 0.000000000000000000, -1.390653214501839985 ) ) ;
#203 = CARTESIAN_POINT ( 'NONE',  ( -3.162152188715176226, 5.204170427930421283E-15, 2.198570393113314037 ) ) ;
#204 = CARTESIAN_POINT ( 'NONE',  ( 6.180110344006204848, 0.000000000000000000, -6.189865238062071562 ) ) ;
#205 = CARTESIAN_POINT ( 'NONE',  ( -1.347579810629496944, 0.000000000000000000, 3.721812424930831309 ) ) ;
#206 = CC_DESIGN_APPROVAL ( #243, ( #64 ) ) ;
#207 = CARTESIAN_POINT ( 'NONE',  ( -3.945374334032847319, 0.000000000000000000, -0.6283989523682160794 ) ) ;
#208 = CARTESIAN_POINT ( 'NONE',  ( 49.05300769595208266, 0.000000000000000000, 2.667019805078091110 ) ) ;
#209 = CARTESIAN_POINT ( 'NONE',  ( -2.744187549745496835, 10.00000000000000000, 2.655103186654688585 ) ) ;
#210 = CARTESIAN_POINT ( 'NONE',  ( 44.55779452171282173, 10.00000000000000000, -3.534632415633133018 ) ) ;
#211 = CARTESIAN_POINT ( 'NONE',  ( -1.347579810629496944, 5.204170427930421283E-15, 3.721812424930831309 ) ) ;
#212 = CARTESIAN_POINT ( 'NONE',  ( 27.31020716821056737, 1.214306433183764966E-14, -6.092166456634518390 ) ) ;
#213 = CARTESIAN_POINT ( 'NONE',  ( 61.00016275083289230, 5.204170427930421283E-15, -1.215661685899371847E-14 ) ) ;
#214 = CARTESIAN_POINT ( 'NONE',  ( -3.162209325671078375, 10.00000000000000000, -2.198584483265773493 ) ) ;
#215 = DATE_TIME_ROLE ( 'creation_date' ) ;
#216 = CARTESIAN_POINT ( 'NONE',  ( 34.06381173600235002, 0.000000000000000000, 5.266305484782960455 ) ) ;
#217 = APPROVAL ( #338, 'UNSPECIFIED' ) ;
#218 = CARTESIAN_POINT ( 'NONE',  ( 40.87915649690862097, 10.00000000000000000, -4.180566580021356948 ) ) ;
#219 = ORIENTED_EDGE ( 'NONE', *, *, #237, .T. ) ;
#220 = DIRECTION ( 'NONE',  ( 1.000000000000000000, 0.000000000000000000, 0.000000000000000000 ) ) ;
#221 = CARTESIAN_POINT ( 'NONE',  ( 51.88872525218816634, 1.214306433183764966E-14, -2.086599733168108539 ) ) ;
#222 = VERTEX_POINT ( 'NONE', #194 ) ;
#223 = APPROVAL_ROLE ( '' ) ;
#224 = DIRECTION ( 'NONE',  ( -0.000000000000000000, -1.000000000000000000, -0.000000000000000000 ) ) ;
#225 = DATE_AND_TIME ( #39, #261 ) ;
#226 = CARTESIAN_POINT ( 'NONE',  ( 57.99521203536876612, 1.214306433183764966E-14, -0.7245283714796745267 ) ) ;
#227 = APPLICATION_CONTEXT ( 'configuration controlled 3d designs of mechanical parts and assemblies' ) ;
#228 = CARTESIAN_POINT ( 'NONE',  ( 61.00016275081712536, 10.00000000000000000, -3.917032713809942557E-12 ) ) ;
#229 = CARTESIAN_POINT ( 'NONE',  ( 29.19814884101255714, 5.204170427930421283E-15, 5.893853694882555061 ) ) ;
#230 = CARTESIAN_POINT ( 'NONE',  ( 60.72496591718988412, 0.000000000000000000, -0.06813121868301129369 ) ) ;
#231 = CC_DESIGN_PERSON_AND_ORGANIZATION_ASSIGNMENT ( #94, #326, ( #64 ) ) ;
#232 = CARTESIAN_POINT ( 'NONE',  ( -3.464433887349023244, 5.204170427930421283E-15, 1.780415291875207195 ) ) ;
#233 = CARTESIAN_POINT ( 'NONE',  ( 61.00016275083289230, 0.000000000000000000, -1.215661685899371847E-14 ) ) ;
#234 = CARTESIAN_POINT ( 'NONE',  ( 39.11409195064368305, 10.00000000000000000, 4.479693819655993892 ) ) ;
#235 = CARTESIAN_POINT ( 'NONE',  ( -3.464402205329171203, 0.000000000000000000, -1.780407478989779246 ) ) ;
#236 = CARTESIAN_POINT ( 'NONE',  ( -3.682052065471286717, 0.000000000000000000, 1.390649016164565488 ) ) ;
#237 = EDGE_CURVE ( 'NONE', #141, #222, #6, .T. ) ;
#238 = PLANE ( 'NONE',  #252 ) ;
#239 = CARTESIAN_POINT ( 'NONE',  ( -3.945374334032847319, 10.00000000000000000, -0.6283989523682160794 ) ) ;
#240 = CARTESIAN_POINT ( 'NONE',  ( -3.835531792780665583, 5.204170427930421283E-15, 1.019067846254525955 ) ) ;
#241 = CARTESIAN_POINT ( 'NONE',  ( 53.37402787179086516, 0.000000000000000000, 1.791853386780913659 ) ) ;
#242 = CARTESIAN_POINT ( 'NONE',  ( -3.945369041223754092, 10.00000000000000000, 0.6283976471448990964 ) ) ;
#243 = APPROVAL ( #152, 'UNSPECIFIED' ) ;
#244 = CARTESIAN_POINT ( 'NONE',  ( -1.347281577222143811, 1.214306433183764966E-14, -3.721738879643265996 ) ) ;
#245 = DATE_AND_TIME ( #307, #49 ) ;
#246 = CARTESIAN_POINT ( 'NONE',  ( 51.88872525218816634, 10.00000000000000000, -2.086599733168108539 ) ) ;
#247 = CARTESIAN_POINT ( 'NONE',  ( 59.89937541630874307, 5.204170427930421283E-15, 0.2725248747202133615 ) ) ;
#248 = UNCERTAINTY_MEASURE_WITH_UNIT (LENGTH_MEASURE( 1.000000000000000082E-05 ), #52, 'distance_accuracy_value', 'NONE');
#249 = CARTESIAN_POINT ( 'NONE',  ( 48.23411394958422704, 10.00000000000000000, -2.834715522973801249 ) ) ;
#250 = CARTESIAN_POINT ( 'NONE',  ( 57.71114146749255269, 5.204170427930421283E-15, 0.7960711140027980637 ) ) ;
#251 = CARTESIAN_POINT ( 'NONE',  ( 54.63824715506068230, 10.00000000000000000, -1.489861082063997033 ) ) ;
#252 = AXIS2_PLACEMENT_3D ( 'NONE', #352, #16, #361 ) ;
#253 = CALENDAR_DATE ( 2025, 20, 8 ) ;
#254 = CARTESIAN_POINT ( 'NONE',  ( -2.161842946719301217, 10.00000000000000000, 3.160699964592823097 ) ) ;
#255 =( NAMED_UNIT ( * ) SI_UNIT ( $, .STERADIAN. ) SOLID_ANGLE_UNIT ( ) );
#256 = CARTESIAN_POINT ( 'NONE',  ( 14.25361912908789819, 10.00000000000000000, -6.842447674594404283 ) ) ;
#257 = VERTEX_POINT ( 'NONE', #62 ) ;
#258 = CARTESIAN_POINT ( 'NONE',  ( 1.340579977082028806, 10.00000000000000000, -4.974744636415066701 ) ) ;
#259 = APPROVAL_DATE_TIME ( #36, #91 ) ;
#260 = LOCAL_TIME ( 11, 41, 42.00000000000000000, #349 ) ;
#261 = LOCAL_TIME ( 11, 41, 42.00000000000000000, #266 ) ;
#262 = CARTESIAN_POINT ( 'NONE',  ( 61.00016275081712536, 1.214306433183764966E-14, -3.917032713809942557E-12 ) ) ;
#263 = CARTESIAN_POINT ( 'NONE',  ( 61.00016275083289230, 10.00000000000000000, -1.215661685899371847E-14 ) ) ;
#264 = B_SPLINE_SURFACE_WITH_KNOTS ( 'NONE', 4, 1, ( 
 ( #291, #357 ),
 ( #106, #76 ),
 ( #42, #20 ),
 ( #242, #385 ),
 ( #200, #240 ),
 ( #34, #143 ),
 ( #294, #232 ),
 ( #335, #203 ),
 ( #209, #363 ),
 ( #140, #276 ),
 ( #149, #211 ),
 ( #355, #167 ),
 ( #392, #73 ),
 ( #351, #269 ),
 ( #12, #324 ),
 ( #9, #380 ),
 ( #84, #327 ),
 ( #15, #137 ),
 ( #40, #104 ),
 ( #179, #229 ),
 ( #70, #37 ),
 ( #271, #387 ),
 ( #110, #341 ),
 ( #123, #159 ),
 ( #27, #156 ),
 ( #99, #250 ),
 ( #189, #247 ),
 ( #312, #213 ) ),
 .UNSPECIFIED., .F., .F., .F.,
 ( 5, 1, 1, 1, 1, 1, 1, 1, 1, 1, 1, 1, 1, 1, 1, 1, 1, 1, 1, 1, 1, 1, 1, 1, 5 ),
 ( 2, 2 ),
 ( 0.000000000000000000, 0.006365676979501946366, 0.01113674229363168129, 0.01618158743069886621, 0.02163052614568948193, 0.02779228495722497680, 0.03493032354436802905, 0.04368172939090492896, 0.05462787503376246440, 0.06889443522516194851, 0.08766661409192094689, 0.1116926443323265905, 0.1449675206849062870, 0.1782424591516846846, 0.2447716038946990136, 0.3113216121476155007, 0.3778716255086558840, 0.4444216389820980218, 0.5109716543785641774, 0.5775216694758934510, 0.6440716861926020220, 0.7106217005002044562, 0.7771717136623956801, 0.8437217317246057391, 0.9102717492191230164 ),
 ( 0.000000000000000000, 1.000000000000000000 ),
 .UNSPECIFIED. ) ;
#265 = CC_DESIGN_PERSON_AND_ORGANIZATION_ASSIGNMENT ( #323, #354, ( #95 ) ) ;
#266 = COORDINATED_UNIVERSAL_TIME_OFFSET ( 0, 0, .AHEAD. ) ;
#267 = CARTESIAN_POINT ( 'NONE',  ( 9.899074599295342836, 10.00000000000000000, 6.645028693537200937 ) ) ;
#268 = CARTESIAN_POINT ( 'NONE',  ( 51.88872525218816634, 0.000000000000000000, -2.086599733168108539 ) ) ;
#269 = CARTESIAN_POINT ( 'NONE',  ( 3.303491622409441941, 5.204170427930421283E-15, 5.569923090982206837 ) ) ;
#270 = CARTESIAN_POINT ( 'NONE',  ( -4.000010672185773331, 0.000000000000000000, 7.738493006115287898E-15 ) ) ;
#271 = CARTESIAN_POINT ( 'NONE',  ( 39.11409195064368305, 10.00000000000000000, 4.479693819655993892 ) ) ;
#272 = CARTESIAN_POINT ( 'NONE',  ( -3.988729508874414798, 0.000000000000000000, 0.3275227370735800947 ) ) ;
#273 = CARTESIAN_POINT ( 'NONE',  ( -2.162016428990652717, 0.000000000000000000, -3.160742745863916348 ) ) ;
#274 = CARTESIAN_POINT ( 'NONE',  ( -3.464402205329171203, 10.00000000000000000, -1.780407478989779246 ) ) ;
#275 = CARTESIAN_POINT ( 'NONE',  ( -3.999787812099033335, 10.00000000000000000, -0.1193652112599321441 ) ) ;
#276 = CARTESIAN_POINT ( 'NONE',  ( -2.161842946719301217, 5.204170427930421283E-15, 3.160699964592823097 ) ) ;
#277 = CARTESIAN_POINT ( 'NONE',  ( -4.000010672185750238, 1.214306433183764966E-14, 1.233279971202261294E-15 ) ) ;
#278 = PERSON_AND_ORGANIZATION ( #75, #378 ) ;
#279 = CARTESIAN_POINT ( 'NONE',  ( 23.58965943377242880, 1.214306433183764966E-14, -6.452585949676296728 ) ) ;
#280 = COORDINATED_UNIVERSAL_TIME_OFFSET ( 0, 0, .AHEAD. ) ;
#281 = CARTESIAN_POINT ( 'NONE',  ( 34.10963128208886985, 10.00000000000000000, -5.243140638262017816 ) ) ;
#282 = APPROVAL_ROLE ( '' ) ;
#283 = CARTESIAN_POINT ( 'NONE',  ( 61.00016275083289230, 10.00000000000000000, -1.215661685899371847E-14 ) ) ;
#284 = CARTESIAN_POINT ( 'NONE',  ( 0.000000000000000000, 0.000000000000000000, 0.000000000000000000 ) ) ;
#285 = CARTESIAN_POINT ( 'NONE',  ( 56.44311574571374024, 10.00000000000000000, -1.084424447863505891 ) ) ;
#286 = CARTESIAN_POINT ( 'NONE',  ( 56.44311574571374024, 10.00000000000000000, -1.084424447863505891 ) ) ;
#287 = PRODUCT_DEFINITION_SHAPE ( 'NONE', 'NONE',  #147 ) ;
#288 = CARTESIAN_POINT ( 'NONE',  ( -3.835531792780665583, 10.00000000000000000, 1.019067846254525955 ) ) ;
#289 = CARTESIAN_POINT ( 'NONE',  ( 19.23811955928892203, 10.00000000000000000, -6.744035006655380471 ) ) ;
#290 = CARTESIAN_POINT ( 'NONE',  ( 57.71114146749255269, 10.00000000000000000, 0.7960711140027980637 ) ) ;
#291 = CARTESIAN_POINT ( 'NONE',  ( -4.000010672185773331, 10.00000000000000000, 7.738493006115287898E-15 ) ) ;
#292 = CARTESIAN_POINT ( 'NONE',  ( 9.899074599295342836, 0.000000000000000000, 6.645028693537200937 ) ) ;
#293 = SHAPE_DEFINITION_REPRESENTATION ( #287, #187 ) ;
#294 = CARTESIAN_POINT ( 'NONE',  ( -3.464433887349023244, 10.00000000000000000, 1.780415291875207195 ) ) ;
#295 = CARTESIAN_POINT ( 'NONE',  ( -0.2246440192882406817, 0.000000000000000000, -4.327186008158712127 ) ) ;
#296 = CARTESIAN_POINT ( 'NONE',  ( 53.37402787179086516, 10.00000000000000000, 1.791853386780913659 ) ) ;
#297 = APPROVAL_PERSON_ORGANIZATION ( #92, #243, #282 ) ;
#298 = FACE_OUTER_BOUND ( 'NONE', #97, .T. ) ;
#299 = CARTESIAN_POINT ( 'NONE',  ( 34.10963128208886985, 0.000000000000000000, -5.243140638262017816 ) ) ;
#300 = LINE ( 'NONE', #381, #113 ) ;
#301 = AXIS2_PLACEMENT_3D ( 'NONE', #130, #154, #30 ) ;
#302 = CARTESIAN_POINT ( 'NONE',  ( 34.10963128208886985, 1.214306433183764966E-14, -5.243140638262017816 ) ) ;
#303 = CARTESIAN_POINT ( 'NONE',  ( -1.347579810629496944, 10.00000000000000000, 3.721812424930831309 ) ) ;
#304 = CARTESIAN_POINT ( 'NONE',  ( -3.464402205329171203, 1.214306433183764966E-14, -1.780407478989779246 ) ) ;
#305 = DIRECTION ( 'NONE',  ( 0.000000000000000000, 0.000000000000000000, 1.000000000000000000 ) ) ;
#306 = CARTESIAN_POINT ( 'NONE',  ( 40.87915649690862097, 10.00000000000000000, -4.180566580021356948 ) ) ;
#307 = CALENDAR_DATE ( 2025, 20, 8 ) ;
#308 = EDGE_CURVE ( 'NONE', #195, #141, #166, .T. ) ;
#309 = CARTESIAN_POINT ( 'NONE',  ( 14.25361912908789819, 1.214306433183764966E-14, -6.842447674594404283 ) ) ;
#310 = COORDINATED_UNIVERSAL_TIME_OFFSET ( 0, 0, .AHEAD. ) ;
#311 = CARTESIAN_POINT ( 'NONE',  ( 31.02221433352090330, 10.00000000000000000, -5.658679045734908541 ) ) ;
#312 = CARTESIAN_POINT ( 'NONE',  ( 61.00016275083289230, 10.00000000000000000, -1.215661685899371847E-14 ) ) ;
#313 = CARTESIAN_POINT ( 'NONE',  ( 60.72496591718988412, 10.00000000000000000, -0.06813121868301129369 ) ) ;
#314 = FACE_OUTER_BOUND ( 'NONE', #136, .T. ) ;
#315 = CARTESIAN_POINT ( 'NONE',  ( -2.744087495540648458, 10.00000000000000000, -2.655078512974201832 ) ) ;
#316 = EDGE_CURVE ( 'NONE', #195, #141, #353, .T. ) ;
#317 = ORIENTED_EDGE ( 'NONE', *, *, #51, .T. ) ;
#318 = CALENDAR_DATE ( 2025, 20, 8 ) ;
#319 = CARTESIAN_POINT ( 'NONE',  ( -4.000010672185773331, 10.00000000000000000, 7.738493006115287898E-15 ) ) ;
#320 = CARTESIAN_POINT ( 'NONE',  ( 54.63824715506068230, 10.00000000000000000, -1.489861082063997033 ) ) ;
#321 = ORIENTED_EDGE ( 'NONE', *, *, #316, .F. ) ;
#322 = CARTESIAN_POINT ( 'NONE',  ( -3.999787812099033335, 10.00000000000000000, -0.1193652112599321441 ) ) ;
#323 = PERSON_AND_ORGANIZATION ( #75, #378 ) ;
#324 = CARTESIAN_POINT ( 'NONE',  ( 6.177629102271805728, 5.204170427930421283E-15, 6.190477115333933078 ) ) ;
#325 = CARTESIAN_POINT ( 'NONE',  ( 56.44311574571374024, 0.000000000000000000, -1.084424447863505891 ) ) ;
#326 = PERSON_AND_ORGANIZATION_ROLE ( 'creator' ) ;
#327 = CARTESIAN_POINT ( 'NONE',  ( 14.24568511429388096, 5.204170427930421283E-15, 6.844404105661390680 ) ) ;
#328 = CARTESIAN_POINT ( 'NONE',  ( -3.162209325671078375, 0.000000000000000000, -2.198584483265773493 ) ) ;
#329 = CARTESIAN_POINT ( 'NONE',  ( 19.24952798273630705, 10.00000000000000000, 6.741222125033523582 ) ) ;
#330 = CARTESIAN_POINT ( 'NONE',  ( 59.13091934526939752, 0.000000000000000000, -0.4565785448581906047 ) ) ;
#331 = CARTESIAN_POINT ( 'NONE',  ( 3.303491622409441941, 0.000000000000000000, 5.569923090982206837 ) ) ;
#332 = CARTESIAN_POINT ( 'NONE',  ( 14.25361912908789819, 0.000000000000000000, -6.842447674594404283 ) ) ;
#333 = CC_DESIGN_PERSON_AND_ORGANIZATION_ASSIGNMENT ( #192, #384, ( #64 ) ) ;
#334 = CARTESIAN_POINT ( 'NONE',  ( 3.302099453747358471, 1.214306433183764966E-14, -5.570266403274718670 ) ) ;
#335 = CARTESIAN_POINT ( 'NONE',  ( -3.162152188715176226, 10.00000000000000000, 2.198570393113314037 ) ) ;
#336 = CARTESIAN_POINT ( 'NONE',  ( 48.23411394958422704, 1.214306433183764966E-14, -2.834715522973801249 ) ) ;
#337 = CARTESIAN_POINT ( 'NONE',  ( -2.162016428990652717, 10.00000000000000000, -3.160742745863916348 ) ) ;
#338 = APPROVAL_STATUS ( 'not_yet_approved' ) ;
#339 = CARTESIAN_POINT ( 'NONE',  ( -1.347281577222143811, 10.00000000000000000, -3.721738879643265996 ) ) ;
#340 = CARTESIAN_POINT ( 'NONE',  ( -3.835523099869097674, 10.00000000000000000, -1.019065702555253194 ) ) ;
#341 = CARTESIAN_POINT ( 'NONE',  ( 43.82044898758530849, 5.204170427930421283E-15, 3.682140076002339946 ) ) ;
#342 = APPLICATION_CONTEXT ( 'configuration controlled 3d designs of mechanical parts and assemblies' ) ;
#343 = CARTESIAN_POINT ( 'NONE',  ( 59.13091934526939752, 10.00000000000000000, -0.4565785448581906047 ) ) ;
#344 = EDGE_LOOP ( 'NONE', ( #134, #188, #321, #103 ) ) ;
#345 = CARTESIAN_POINT ( 'NONE',  ( 56.44311574571374024, 1.214306433183764966E-14, -1.084424447863505891 ) ) ;
#346 = CARTESIAN_POINT ( 'NONE',  ( -4.000010672185773331, 10.00000000000000000, 7.738493006115287898E-15 ) ) ;
#347 = CC_DESIGN_APPROVAL ( #217, ( #147 ) ) ;
#348 = CARTESIAN_POINT ( 'NONE',  ( 60.72496591718988412, 1.214306433183764966E-14, -0.06813121868301129369 ) ) ;
#349 = COORDINATED_UNIVERSAL_TIME_OFFSET ( 0, 0, .AHEAD. ) ;
#350 = CARTESIAN_POINT ( 'NONE',  ( -3.682069090142465306, 10.00000000000000000, -1.390653214501839985 ) ) ;
#351 = CARTESIAN_POINT ( 'NONE',  ( 3.303491622409441941, 10.00000000000000000, 5.569923090982206837 ) ) ;
#352 = CARTESIAN_POINT ( 'NONE',  ( 27.48702598235577810, 0.000000000000000000, -6.059876568597196922 ) ) ;
#353 = B_SPLINE_CURVE_WITH_KNOTS ( 'NONE', 4,
 ( #319, #32, #28, #157, #288, #1, #129, #4, #133, #254, #303, #10, #108, #198, #117, #267, #173, #329, #365, #48, #138, #234, #87, #170, #296, #290, #382, #263 ),
 .UNSPECIFIED., .F., .F.,
 ( 5, 1, 1, 1, 1, 1, 1, 1, 1, 1, 1, 1, 1, 1, 1, 1, 1, 1, 1, 1, 1, 1, 1, 1, 5 ),
 ( 0.000000000000000000, 0.006365676979501946366, 0.01113674229363168129, 0.01618158743069886621, 0.02163052614568948193, 0.02779228495722497680, 0.03493032354436802905, 0.04368172939090492896, 0.05462787503376247134, 0.06889443522516194851, 0.08766661409192094689, 0.1116926443323266044, 0.1449675206849062870, 0.1782424591516846846, 0.2447716038946990136, 0.3113216121476155007, 0.3778716255086558840, 0.4444216389820980218, 0.5109716543785641774, 0.5775216694758934510, 0.6440716861926020220, 0.7106217005002044562, 0.7771717136623956801, 0.8437217317246057391, 0.9102717492191230164 ),
 .UNSPECIFIED. ) ;
#354 = PERSON_AND_ORGANIZATION_ROLE ( 'classification_officer' ) ;
#355 = CARTESIAN_POINT ( 'NONE',  ( -0.2241393383688433105, 10.00000000000000000, 4.327061552293501201 ) ) ;
#356 = CARTESIAN_POINT ( 'NONE',  ( 57.99521203536876612, 0.000000000000000000, -0.7245283714796745267 ) ) ;
#357 = CARTESIAN_POINT ( 'NONE',  ( -4.000010672185773331, 5.204170427930421283E-15, 7.738493006115287898E-15 ) ) ;
#358 = PRODUCT_RELATED_PRODUCT_CATEGORY ( 'detail', '', ( #80 ) ) ;
#359 = CARTESIAN_POINT ( 'NONE',  ( -2.744087495540648458, 0.000000000000000000, -2.655078512974201832 ) ) ;
#360 = CARTESIAN_POINT ( 'NONE',  ( -3.464433887349023244, 0.000000000000000000, 1.780415291875207195 ) ) ;
#361 = DIRECTION ( 'NONE',  ( 0.000000000000000000, -0.000000000000000000, 1.000000000000000000 ) ) ;
#362 = CARTESIAN_POINT ( 'NONE',  ( -2.744087495540648458, 1.214306433183764966E-14, -2.655078512974201832 ) ) ;
#363 = CARTESIAN_POINT ( 'NONE',  ( -2.744187549745496835, 5.204170427930421283E-15, 2.655103186654688585 ) ) ;
#364 = CARTESIAN_POINT ( 'NONE',  ( -3.988727823981761400, 10.00000000000000000, -0.3275223215737777527 ) ) ;
#365 = CARTESIAN_POINT ( 'NONE',  ( 24.19352111181953546, 10.00000000000000000, 6.415334510845734250 ) ) ;
#366 = CARTESIAN_POINT ( 'NONE',  ( 3.302099453747358471, 10.00000000000000000, -5.570266403274718670 ) ) ;
#367 = PERSON_AND_ORGANIZATION ( #75, #378 ) ;
#368 = CARTESIAN_POINT ( 'NONE',  ( -3.162209325671078375, 1.214306433183764966E-14, -2.198584483265773493 ) ) ;
#369 = PERSON_AND_ORGANIZATION ( #75, #378 ) ;
#370 = CARTESIAN_POINT ( 'NONE',  ( -3.682069090142465306, 1.214306433183764966E-14, -1.390653214501839985 ) ) ;
#371 =( NAMED_UNIT ( * ) PLANE_ANGLE_UNIT ( ) SI_UNIT ( $, .RADIAN. ) );
#372 = CARTESIAN_POINT ( 'NONE',  ( 57.99521203536876612, 10.00000000000000000, -0.7245283714796745267 ) ) ;
#373 = CARTESIAN_POINT ( 'NONE',  ( 3.302099453747358471, 10.00000000000000000, -5.570266403274718670 ) ) ;
#374 = CARTESIAN_POINT ( 'NONE',  ( 61.00016275083289230, 10.00000000000000000, -1.215661685899371847E-14 ) ) ;
#375 = CARTESIAN_POINT ( 'NONE',  ( 60.72496591718988412, 10.00000000000000000, -0.06813121868301129369 ) ) ;
#376 = ADVANCED_FACE ( 'NONE', ( #168 ), #264, .F. ) ;
#377 = B_SPLINE_SURFACE_WITH_KNOTS ( 'NONE', 4, 1, ( 
 ( #114, #277 ),
 ( #275, #153 ),
 ( #364, #118 ),
 ( #239, #86 ),
 ( #340, #26 ),
 ( #180, #370 ),
 ( #274, #304 ),
 ( #214, #368 ),
 ( #93, #362 ),
 ( #337, #395 ),
 ( #339, #244 ),
 ( #397, #151 ),
 ( #55, #391 ),
 ( #366, #334 ),
 ( #21, #184 ),
 ( #53, #90 ),
 ( #83, #309 ),
 ( #47, #181 ),
 ( #124, #279 ),
 ( #178, #212 ),
 ( #311, #88 ),
 ( #281, #302 ),
 ( #19, #122 ),
 ( #306, #182 ),
 ( #210, #22 ),
 ( #249, #336 ),
 ( #246, #221 ),
 ( #320, #96 ),
 ( #286, #345 ),
 ( #66, #226 ),
 ( #101, #31 ),
 ( #160, #155 ),
 ( #375, #348 ),
 ( #228, #262 ) ),
 .UNSPECIFIED., .F., .F., .F.,
 ( 5, 1, 1, 1, 1, 1, 1, 1, 1, 1, 1, 1, 1, 1, 1, 1, 1, 1, 1, 1, 1, 1, 1, 1, 1, 1, 1, 1, 1, 1, 5 ),
 ( 2, 2 ),
 ( 0.000000000000000000, 0.006365676979501942029, 0.01113674229363167435, 0.01618158743069886274, 0.02163052614568946805, 0.02779228495722498374, 0.03493032354436801518, 0.04368172939090492896, 0.05462787503376248521, 0.06889443522516201790, 0.08766661409192096077, 0.1116926443323265905, 0.1449675206849061759, 0.1782424591516847401, 0.2447716038946991801, 0.3113216121476157228, 0.3778716255086562725, 0.4444216389820986324, 0.4776966466803316269, 0.5109716543785646214, 0.5775216694758932290, 0.6107966778342475145, 0.6440716861926018000, 0.7106217005002041232, 0.7771717136623950140, 0.8104467226935003765, 0.8437217317246056281, 0.8603592360982350584, 0.8769967404718645998, 0.8936342448454940302, 0.9102717492191234605 ),
 ( 0.000000000000000000, 1.000000000000000000 ),
 .UNSPECIFIED. ) ;
#378 = ORGANIZATION ( 'UNSPECIFIED', 'UNSPECIFIED', '' ) ;
#379 = CARTESIAN_POINT ( 'NONE',  ( 31.02221433352090330, 10.00000000000000000, -5.658679045734908541 ) ) ;
#380 = CARTESIAN_POINT ( 'NONE',  ( 9.899074599295342836, 5.204170427930421283E-15, 6.645028693537200937 ) ) ;
#381 = CARTESIAN_POINT ( 'NONE',  ( -4.000010672185773331, 10.00000000000000000, 7.738493006115287898E-15 ) ) ;
#382 = CARTESIAN_POINT ( 'NONE',  ( 59.89937541630874307, 10.00000000000000000, 0.2725248747202133615 ) ) ;
#383 = CARTESIAN_POINT ( 'NONE',  ( 14.24568511429388096, 0.000000000000000000, 6.844404105661390680 ) ) ;
#384 = PERSON_AND_ORGANIZATION_ROLE ( 'design_supplier' ) ;
#385 = CARTESIAN_POINT ( 'NONE',  ( -3.945369041223754092, 5.204170427930421283E-15, 0.6283976471448990964 ) ) ;
#386 = CARTESIAN_POINT ( 'NONE',  ( -3.835523099869097674, 0.000000000000000000, -1.019065702555253194 ) ) ;
#387 = CARTESIAN_POINT ( 'NONE',  ( 39.11409195064368305, 5.204170427930421283E-15, 4.479693819655993892 ) ) ;
#388 = CARTESIAN_POINT ( 'NONE',  ( -3.945369041223754092, 0.000000000000000000, 0.6283976471448990964 ) ) ;
#389 = CARTESIAN_POINT ( 'NONE',  ( 44.55779452171282173, 0.000000000000000000, -3.534632415633133018 ) ) ;
#390 = CARTESIAN_POINT ( 'NONE',  ( 61.00016275083289230, 0.000000000000000000, -1.215661685899371847E-14 ) ) ;
#391 = CARTESIAN_POINT ( 'NONE',  ( 1.340579977082028806, 1.214306433183764966E-14, -4.974744636415066701 ) ) ;
#392 = CARTESIAN_POINT ( 'NONE',  ( 1.339712526443797236, 10.00000000000000000, 4.974958552286973479 ) ) ;
#393 = CARTESIAN_POINT ( 'NONE',  ( 57.71114146749255269, 0.000000000000000000, 0.7960711140027980637 ) ) ;
#394 = APPROVAL_ROLE ( '' ) ;
#395 = CARTESIAN_POINT ( 'NONE',  ( -2.162016428990652717, 1.214306433183764966E-14, -3.160742745863916348 ) ) ;
#396 = CALENDAR_DATE ( 2025, 20, 8 ) ;
#397 = CARTESIAN_POINT ( 'NONE',  ( -0.2246440192882406817, 10.00000000000000000, -4.327186008158712127 ) ) ;
#398 = CARTESIAN_POINT ( 'NONE',  ( -0.2246440192882406817, 10.00000000000000000, -4.327186008158712127 ) ) ;
#399 = ADVANCED_FACE ( 'NONE', ( #314 ), #185, .T. ) ;
ENDSEC;
END-ISO-10303-21;
